<svg width="259" height="37" viewBox="0 0 259 37" fill="none" xmlns="http://www.w3.org/2000/svg">
<path d="M10.0557 36.3672C15.5057 36.3672 18.5057 33.8172 19.6557 28.2672L20.3057 25.2172C20.5057 24.3672 20.6057 23.5672 20.6057 22.8172C20.6057 20.4172 19.6557 18.7672 17.7557 17.8672V17.8172C20.5557 17.2172 21.9057 15.1172 22.7557 11.0672L23.0557 9.61719C23.2557 8.71719 23.3557 7.86719 23.3557 7.11719C23.3557 3.26719 21.0057 1.36719 16.2557 1.36719H8.25566L0.805664 36.3672H10.0557ZM12.8057 6.36719H15.3557C16.8557 6.36719 17.6057 7.01719 17.6057 8.36719C17.6057 8.61719 17.5557 9.06719 17.4057 9.81719L17.0057 11.7172C16.4557 14.3172 15.0557 15.6172 12.8057 15.6172H10.8557L12.8057 6.36719ZM9.80567 20.6172H12.1557C14.1557 20.6172 15.0557 21.1672 15.0557 22.8172C15.0557 23.2172 14.9557 23.8172 14.8057 24.6672L14.1557 27.7172C13.6557 30.1672 12.4057 31.3672 10.4557 31.3672H7.50566L9.80567 20.6172Z" fill="white"/>
<path d="M28.767 36.3672L31.967 21.3672H33.967C35.917 21.3672 36.617 21.8172 36.617 23.3672C36.617 23.9172 36.517 24.6172 36.317 25.4672L34.967 31.8672C34.667 33.2672 34.517 34.3172 34.517 35.0672C34.517 35.3172 34.567 35.7672 34.617 36.3672H40.067C40.017 35.9672 39.967 35.6672 39.967 35.4672C39.967 35.0172 40.117 33.9672 40.467 32.3172L41.767 26.1672C42.017 25.2172 42.117 24.2172 42.117 23.2672C42.117 20.9172 41.267 19.4672 39.567 18.9172V18.8672C42.417 18.1172 43.917 15.9672 44.767 11.7672L45.117 10.0672C45.317 9.06719 45.417 8.16719 45.417 7.36719C45.417 3.41719 43.017 1.36719 38.667 1.36719H30.617L23.167 36.3672H28.767ZM35.167 6.36719H37.667C39.067 6.36719 39.767 6.96719 39.767 8.16719C39.767 8.66719 39.717 9.21719 39.567 9.76719L38.967 12.4672C38.367 15.0672 36.917 16.3672 34.667 16.3672H33.017L35.167 6.36719Z" fill="white"/>
<path d="M60.4307 36.3672L61.4807 31.3672H52.1307L54.4307 20.6172H61.8307L62.8807 15.6172H55.4807L57.4307 6.36719H66.7807L67.8807 1.36719H52.8807L45.4307 36.3672H60.4307Z" fill="white"/>
<path d="M64.0947 36.3672H69.3947L71.7947 29.5172H77.9947L77.4947 36.3672H83.0947L84.8447 1.36719H77.2447L64.0947 36.3672ZM79.5447 7.71719L78.2947 24.7672H73.4947L79.5447 7.71719Z" fill="white"/>
<path d="M107.212 1.36719L97.7119 15.7172L100.762 1.36719H95.1619L87.7119 36.3672H93.3119L95.5119 25.9672L98.8619 21.3172L100.212 36.3672H105.762L103.762 14.5172L113.212 1.36719H107.212Z" fill="white"/>
<path d="M120.195 36.6172C123.095 36.6172 125.345 35.6672 126.995 33.7672C128.645 31.8172 129.495 29.3172 129.495 26.2672C129.495 23.1172 128.095 19.9172 125.345 16.6672C123.295 14.3172 122.295 12.1172 122.295 10.1672C122.295 7.61719 123.295 5.61719 125.545 5.61719C127.195 5.61719 128.045 6.36719 128.045 7.86719C128.045 8.31719 127.995 8.81719 127.895 9.36719L127.595 10.8672H132.845L132.995 10.2172C133.245 8.96719 133.395 7.91719 133.395 7.06719C133.395 2.76719 130.895 0.617188 125.895 0.617188C123.095 0.617188 120.845 1.56719 119.195 3.46719C117.545 5.31719 116.745 7.71719 116.745 10.6672C116.745 13.8172 118.145 16.9672 120.895 20.0672C122.945 22.4172 123.945 24.6672 123.945 26.7172C123.945 29.9672 122.795 31.6172 120.545 31.6172C118.795 31.6172 117.945 30.8672 117.945 29.3172C117.945 28.9172 117.995 28.4672 118.095 27.9672L118.495 25.8172H113.245L112.995 27.0172C112.745 28.0672 112.645 29.1172 112.645 30.1172C112.645 34.4672 115.145 36.6172 120.195 36.6172Z" fill="white"/>
<path d="M142.55 36.1172L148.9 6.11719H154.65L155.75 1.11719H138.65L137.55 6.11719H143.3L136.95 36.1172H142.55Z" fill="white"/>
<path d="M149.215 36.1172H154.515L156.915 29.2672H163.115L162.615 36.1172H168.215L169.965 1.11719H162.365L149.215 36.1172ZM164.665 7.46719L163.415 24.5172H158.615L164.665 7.46719Z" fill="white"/>
<path d="M180.486 36.1172L186.836 6.11719H192.586L193.686 1.11719H176.586L175.486 6.11719H181.236L174.886 36.1172H180.486Z" fill="white"/>
<path d="M196.496 36.1172L203.946 1.11719H198.346L190.896 36.1172H196.496Z" fill="white"/>
<path d="M238.633 36.1172L244.083 10.5672L245.483 36.1172H250.883L258.333 1.11719H253.333L248.833 22.0672L247.733 1.11719H241.083L233.633 36.1172H238.633Z" fill="white"/>
<path d="M211.745 36.6172C211.758 36.6172 221.771 36.6172 221.784 36.6171C226.511 36.6031 229.399 34.003 230.546 28.7672L234.495 10.2672C234.695 9.36719 234.796 8.51719 234.796 7.66719C234.796 3.13575 231.721 0.637623 226.757 0.617312C226.736 0.617229 216.716 0.617188 216.696 0.617188C212.096 0.617188 208.946 3.36719 207.896 8.51719L203.946 27.0172C203.746 27.9172 203.646 28.7672 203.646 29.5672C203.646 34.1172 206.745 36.6172 211.745 36.6172Z" fill="#E40028"/>
<path d="M215.053 25.6029C214.3 26.0818 213.344 25.4103 213.54 24.5399L216.337 12.0995C216.509 11.3315 217.46 11.0548 218.018 11.6105L224.547 18.1163C225.001 18.5684 224.919 19.3245 224.378 19.6684L215.053 25.6029Z" fill="white"/>
</svg>
