<svg width="258" height="36" viewBox="0 0 258 36" fill="none" xmlns="http://www.w3.org/2000/svg">
<path d="M9.25 35.75C14.7 35.75 17.7 33.2 18.85 27.65L19.5 24.6C19.7 23.75 19.8 22.95 19.8 22.2C19.8 19.8 18.85 18.15 16.95 17.25V17.2C19.75 16.6 21.1 14.5 21.95 10.45L22.25 9C22.45 8.1 22.55 7.25 22.55 6.5C22.55 2.65 20.2 0.75 15.45 0.75H7.45L0 35.75H9.25ZM12 5.75H14.55C16.05 5.75 16.8 6.4 16.8 7.75C16.8 8 16.75 8.45 16.6 9.2L16.2 11.1C15.65 13.7 14.25 15 12 15H10.05L12 5.75ZM9 20H11.35C13.35 20 14.25 20.55 14.25 22.2C14.25 22.6 14.15 23.2 14 24.05L13.35 27.1C12.85 29.55 11.6 30.75 9.65 30.75H6.7L9 20Z" fill="#041E42"/>
<path d="M27.9613 35.75L31.1613 20.75H33.1613C35.1113 20.75 35.8113 21.2 35.8113 22.75C35.8113 23.3 35.7113 24 35.5113 24.85L34.1613 31.25C33.8613 32.65 33.7113 33.7 33.7113 34.45C33.7113 34.7 33.7613 35.15 33.8113 35.75H39.2613C39.2113 35.35 39.1613 35.05 39.1613 34.85C39.1613 34.4 39.3113 33.35 39.6613 31.7L40.9613 25.55C41.2113 24.6 41.3113 23.6 41.3113 22.65C41.3113 20.3 40.4613 18.85 38.7613 18.3V18.25C41.6113 17.5 43.1113 15.35 43.9613 11.15L44.3113 9.45C44.5113 8.45 44.6113 7.55 44.6113 6.75C44.6113 2.8 42.2113 0.75 37.8613 0.75H29.8113L22.3613 35.75H27.9613ZM34.3613 5.75H36.8613C38.2613 5.75 38.9613 6.35 38.9613 7.55C38.9613 8.05 38.9113 8.6 38.7613 9.15L38.1613 11.85C37.5613 14.45 36.1113 15.75 33.8613 15.75H32.2113L34.3613 5.75Z" fill="#041E42"/>
<path d="M59.625 35.75L60.675 30.75H51.325L53.625 20H61.025L62.075 15H54.675L56.625 5.75H65.975L67.075 0.75H52.075L44.625 35.75H59.625Z" fill="#041E42"/>
<path d="M63.2891 35.75H68.5891L70.9891 28.9H77.1891L76.6891 35.75H82.2891L84.0391 0.75H76.4391L63.2891 35.75ZM78.7391 7.1L77.4891 24.15H72.6891L78.7391 7.1Z" fill="#041E42"/>
<path d="M106.406 0.75L96.9062 15.1L99.9563 0.75H94.3562L86.9062 35.75H92.5062L94.7063 25.35L98.0563 20.7L99.4062 35.75H104.956L102.956 13.9L112.406 0.75H106.406Z" fill="#041E42"/>
<path d="M119.389 36C122.289 36 124.539 35.05 126.189 33.15C127.839 31.2 128.689 28.7 128.689 25.65C128.689 22.5 127.289 19.3 124.539 16.05C122.489 13.7 121.489 11.5 121.489 9.55C121.489 7 122.489 5 124.739 5C126.389 5 127.239 5.75 127.239 7.25C127.239 7.7 127.189 8.2 127.089 8.75L126.789 10.25H132.039L132.189 9.6C132.439 8.35 132.589 7.3 132.589 6.45C132.589 2.15 130.089 0 125.089 0C122.289 0 120.039 0.95 118.389 2.85C116.739 4.7 115.939 7.1 115.939 10.05C115.939 13.2 117.339 16.35 120.089 19.45C122.139 21.8 123.139 24.05 123.139 26.1C123.139 29.35 121.989 31 119.739 31C117.989 31 117.139 30.25 117.139 28.7C117.139 28.3 117.189 27.85 117.289 27.35L117.689 25.2H112.439L112.189 26.4C111.939 27.45 111.839 28.5 111.839 29.5C111.839 33.85 114.339 36 119.389 36Z" fill="white"/>
<path d="M141.745 35.5L148.095 5.5H153.845L154.945 0.5H137.845L136.745 5.5H142.495L136.145 35.5H141.745Z" fill="white"/>
<path d="M148.409 35.5H153.709L156.109 28.65H162.309L161.809 35.5H167.409L169.159 0.5H161.559L148.409 35.5ZM163.859 6.85L162.609 23.9H157.809L163.859 6.85Z" fill="white"/>
<path d="M179.68 35.5L186.03 5.5H191.78L192.88 0.5H175.78L174.68 5.5H180.43L174.08 35.5H179.68Z" fill="white"/>
<path d="M195.691 35.5L203.141 0.5H197.541L190.091 35.5H195.691Z" fill="white"/>
<path d="M237.827 35.5L243.277 9.95L244.677 35.5H250.077L257.527 0.5H252.527L248.027 21.45L246.927 0.5H240.277L232.827 35.5H237.827Z" fill="white"/>
<path d="M210.94 36C210.953 36 220.966 36 220.978 35.9999C225.706 35.9859 228.593 33.3858 229.74 28.15L233.69 9.65C233.89 8.75 233.99 7.9 233.99 7.05C233.99 2.51857 230.915 0.0204352 225.951 0.000124831C225.931 4.16204e-05 215.91 0 215.89 0C211.29 0 208.14 2.75 207.09 7.9L203.14 26.4C202.94 27.3 202.84 28.15 202.84 28.95C202.84 33.5 205.94 36 210.94 36Z" fill="#E40028"/>
<path d="M214.247 24.9857C213.494 25.4647 212.539 24.7931 212.734 23.9227L215.531 11.4823C215.704 10.7143 216.655 10.4376 217.212 10.9933L223.742 17.4991C224.195 17.9512 224.113 18.7073 223.573 19.0512L214.247 24.9857Z" fill="white"/>
</svg>
